<?xml version="1.0" standalone="no"?><!DOCTYPE svg PUBLIC "-//W3C//DTD SVG 1.1//EN" "http://www.w3.org/Graphics/SVG/1.1/DTD/svg11.dtd"><svg t="1655801890967" class="icon" viewBox="0 0 1024 1024" version="1.1" xmlns="http://www.w3.org/2000/svg" p-id="7209" xmlns:xlink="http://www.w3.org/1999/xlink" width="200" height="200"><defs><style type="text/css">@font-face { font-family: feedback-iconfont; src: url("//at.alicdn.com/t/font_1031158_u69w8yhxdu.woff2?t=1630033759944") format("woff2"), url("//at.alicdn.com/t/font_1031158_u69w8yhxdu.woff?t=1630033759944") format("woff"), url("//at.alicdn.com/t/font_1031158_u69w8yhxdu.ttf?t=1630033759944") format("truetype"); }
</style></defs><path d="M452.266667 0a131.982222 131.982222 0 0 1 124.302222 175.900444h183.296a87.836444 87.836444 0 0 1 87.836444 87.836445v183.352889a131.982222 131.982222 0 1 1 0 248.604444v183.352889A87.836444 87.836444 0 0 1 759.864889 967.111111H576.853333a131.982222 131.982222 0 1 0-248.775111 0H144.725333A87.836444 87.836444 0 0 1 56.888889 879.047111v-182.499555a131.697778 131.697778 0 1 0 0-248.604445V264.590222a87.836444 87.836444 0 0 1 87.836444-87.836444h183.296A131.811556 131.811556 0 0 1 452.494222 1.080889L452.323556 0z" p-id="7210"></path></svg>